<svg width="1363" height="163" viewBox="0 0 1363 163" fill="none" xmlns="http://www.w3.org/2000/svg">
<path d="M0 15C0 6.71573 6.71573 0 15 0H37V163H15C6.71573 163 0 156.284 0 148V15Z" fill="#424242"/>
<rect width="1097" height="163" transform="translate(37)" fill="#F0F0F0"/>
<path d="M101.906 53.9219L94.3945 51.2383V48.0859L104.602 52.375V54.6367L101.906 53.9219ZM94.3945 56.1719L101.918 53.4297L104.602 52.7852V55.0352L94.3945 59.3242V56.1719ZM119.836 46.8555L115.195 61H111.457L117.797 43.9375H120.176L119.836 46.8555ZM123.691 61L119.039 46.8555L118.664 43.9375H121.066L127.441 61H123.691ZM123.48 54.6484V57.4023H114.469V54.6484H123.48ZM131.812 50.7578V65.875H128.438V48.3203H131.566L131.812 50.7578ZM139.84 54.5195V54.7656C139.84 55.6875 139.73 56.543 139.512 57.332C139.301 58.1211 138.988 58.8086 138.574 59.3945C138.16 59.9727 137.645 60.4258 137.027 60.7539C136.418 61.0742 135.715 61.2344 134.918 61.2344C134.145 61.2344 133.473 61.0781 132.902 60.7656C132.332 60.4531 131.852 60.0156 131.461 59.4531C131.078 58.8828 130.77 58.2227 130.535 57.4727C130.301 56.7227 130.121 55.918 129.996 55.0586V54.4141C130.121 53.4922 130.301 52.6484 130.535 51.8828C130.77 51.1094 131.078 50.4414 131.461 49.8789C131.852 49.3086 132.328 48.8672 132.891 48.5547C133.461 48.2422 134.129 48.0859 134.895 48.0859C135.699 48.0859 136.406 48.2383 137.016 48.543C137.633 48.8477 138.148 49.2852 138.562 49.8555C138.984 50.4258 139.301 51.1055 139.512 51.8945C139.73 52.6836 139.84 53.5586 139.84 54.5195ZM136.453 54.7656V54.5195C136.453 53.9805 136.406 53.4844 136.312 53.0312C136.227 52.5703 136.086 52.168 135.891 51.8242C135.703 51.4805 135.453 51.2148 135.141 51.0273C134.836 50.832 134.465 50.7344 134.027 50.7344C133.566 50.7344 133.172 50.8086 132.844 50.957C132.523 51.1055 132.262 51.3203 132.059 51.6016C131.855 51.8828 131.703 52.2188 131.602 52.6094C131.5 53 131.438 53.4414 131.414 53.9336V55.5625C131.453 56.1406 131.562 56.6602 131.742 57.1211C131.922 57.5742 132.199 57.9336 132.574 58.1992C132.949 58.4648 133.441 58.5977 134.051 58.5977C134.496 58.5977 134.871 58.5 135.176 58.3047C135.48 58.1016 135.727 57.8242 135.914 57.4727C136.109 57.1211 136.246 56.7148 136.324 56.2539C136.41 55.793 136.453 55.2969 136.453 54.7656ZM147.773 61.2344C146.789 61.2344 145.906 61.0781 145.125 60.7656C144.344 60.4453 143.68 60.0039 143.133 59.4414C142.594 58.8789 142.18 58.2266 141.891 57.4844C141.602 56.7344 141.457 55.9375 141.457 55.0938V54.625C141.457 53.6641 141.594 52.7852 141.867 51.9883C142.141 51.1914 142.531 50.5 143.039 49.9141C143.555 49.3281 144.18 48.8789 144.914 48.5664C145.648 48.2461 146.477 48.0859 147.398 48.0859C148.297 48.0859 149.094 48.2344 149.789 48.5312C150.484 48.8281 151.066 49.25 151.535 49.7969C152.012 50.3438 152.371 51 152.613 51.7656C152.855 52.5234 152.977 53.3672 152.977 54.2969V55.7031H142.898V53.4531H149.66V53.1953C149.66 52.7266 149.574 52.3086 149.402 51.9414C149.238 51.5664 148.988 51.2695 148.652 51.0508C148.316 50.832 147.887 50.7227 147.363 50.7227C146.918 50.7227 146.535 50.8203 146.215 51.0156C145.895 51.2109 145.633 51.4844 145.43 51.8359C145.234 52.1875 145.086 52.6016 144.984 53.0781C144.891 53.5469 144.844 54.0625 144.844 54.625V55.0938C144.844 55.6016 144.914 56.0703 145.055 56.5C145.203 56.9297 145.41 57.3008 145.676 57.6133C145.949 57.9258 146.277 58.168 146.66 58.3398C147.051 58.5117 147.492 58.5977 147.984 58.5977C148.594 58.5977 149.16 58.4805 149.684 58.2461C150.215 58.0039 150.672 57.6406 151.055 57.1562L152.695 58.9375C152.43 59.3203 152.066 59.6875 151.605 60.0391C151.152 60.3906 150.605 60.6797 149.965 60.9062C149.324 61.125 148.594 61.2344 147.773 61.2344ZM157.617 48.3203L159.715 52.1758L161.871 48.3203H165.469L161.883 54.5195L165.633 61H162.023L159.738 56.9219L157.453 61H153.844L157.594 54.5195L154.008 48.3203H157.617ZM170.836 43.9375V61H167.32V43.9375H170.836ZM177.633 51.2266V53.9688H169.875V51.2266H177.633ZM178.453 43.9375V46.6914H169.875V43.9375H178.453ZM183.844 43V61H180.457V43H183.844ZM186.094 54.7891V54.543C186.094 53.6133 186.227 52.7578 186.492 51.9766C186.758 51.1875 187.145 50.5039 187.652 49.9258C188.16 49.3477 188.785 48.8984 189.527 48.5781C190.27 48.25 191.121 48.0859 192.082 48.0859C193.043 48.0859 193.898 48.25 194.648 48.5781C195.398 48.8984 196.027 49.3477 196.535 49.9258C197.051 50.5039 197.441 51.1875 197.707 51.9766C197.973 52.7578 198.105 53.6133 198.105 54.543V54.7891C198.105 55.7109 197.973 56.5664 197.707 57.3555C197.441 58.1367 197.051 58.8203 196.535 59.4062C196.027 59.9844 195.402 60.4336 194.66 60.7539C193.918 61.0742 193.066 61.2344 192.105 61.2344C191.145 61.2344 190.289 61.0742 189.539 60.7539C188.797 60.4336 188.168 59.9844 187.652 59.4062C187.145 58.8203 186.758 58.1367 186.492 57.3555C186.227 56.5664 186.094 55.7109 186.094 54.7891ZM189.469 54.543V54.7891C189.469 55.3203 189.516 55.8164 189.609 56.2773C189.703 56.7383 189.852 57.1445 190.055 57.4961C190.266 57.8398 190.539 58.1094 190.875 58.3047C191.211 58.5 191.621 58.5977 192.105 58.5977C192.574 58.5977 192.977 58.5 193.312 58.3047C193.648 58.1094 193.918 57.8398 194.121 57.4961C194.324 57.1445 194.473 56.7383 194.566 56.2773C194.668 55.8164 194.719 55.3203 194.719 54.7891V54.543C194.719 54.0273 194.668 53.543 194.566 53.0898C194.473 52.6289 194.32 52.2227 194.109 51.8711C193.906 51.5117 193.637 51.2305 193.301 51.0273C192.965 50.8242 192.559 50.7227 192.082 50.7227C191.605 50.7227 191.199 50.8242 190.863 51.0273C190.535 51.2305 190.266 51.5117 190.055 51.8711C189.852 52.2227 189.703 52.6289 189.609 53.0898C189.516 53.543 189.469 54.0273 189.469 54.543ZM203.801 57.7188L206.438 48.3203H208.582L207.891 52.0117L205.254 61H203.461L203.801 57.7188ZM202.465 48.3203L204.352 57.707L204.527 61H202.418L199.207 48.3203H202.465ZM210.996 57.5547L212.836 48.3203H216.105L212.895 61H210.797L210.996 57.5547ZM208.875 48.3203L211.5 57.6484L211.863 61H210.059L207.422 52.0234L206.754 48.3203H208.875Z" fill="#888888"/>
<path d="M106.688 119H99.1172L99.1641 112.672H106.688C108.25 112.672 109.57 112.297 110.648 111.547C111.742 110.797 112.57 109.68 113.133 108.195C113.711 106.695 114 104.852 114 102.664V101.188C114 99.5469 113.836 98.1094 113.508 96.875C113.195 95.625 112.727 94.5859 112.102 93.7578C111.477 92.9141 110.695 92.2812 109.758 91.8594C108.836 91.4375 107.773 91.2266 106.57 91.2266H98.9766V84.875H106.57C108.883 84.875 111 85.2734 112.922 86.0703C114.859 86.8516 116.531 87.9766 117.938 89.4453C119.359 90.8984 120.453 92.625 121.219 94.625C122 96.6094 122.391 98.8125 122.391 101.234V102.664C122.391 105.07 122 107.273 121.219 109.273C120.453 111.273 119.367 113 117.961 114.453C116.555 115.906 114.891 117.031 112.969 117.828C111.062 118.609 108.969 119 106.688 119ZM103.828 84.875V119H95.6016V84.875H103.828ZM138.586 119.469C136.523 119.469 134.68 119.148 133.055 118.508C131.43 117.852 130.055 116.953 128.93 115.812C127.82 114.672 126.969 113.359 126.375 111.875C125.797 110.391 125.508 108.82 125.508 107.164V106.273C125.508 104.414 125.766 102.695 126.281 101.117C126.797 99.5234 127.562 98.1328 128.578 96.9453C129.594 95.7578 130.867 94.8359 132.398 94.1797C133.93 93.5078 135.711 93.1719 137.742 93.1719C139.539 93.1719 141.148 93.4609 142.57 94.0391C143.992 94.6172 145.195 95.4453 146.18 96.5234C147.18 97.6016 147.938 98.9062 148.453 100.438C148.984 101.969 149.25 103.688 149.25 105.594V108.805H128.531V103.859H141.539V103.25C141.555 102.406 141.406 101.688 141.094 101.094C140.797 100.5 140.359 100.047 139.781 99.7344C139.203 99.4219 138.5 99.2656 137.672 99.2656C136.812 99.2656 136.102 99.4531 135.539 99.8281C134.992 100.203 134.562 100.719 134.25 101.375C133.953 102.016 133.742 102.758 133.617 103.602C133.492 104.445 133.43 105.336 133.43 106.273V107.164C133.43 108.102 133.555 108.953 133.805 109.719C134.07 110.484 134.445 111.141 134.93 111.688C135.43 112.219 136.023 112.633 136.711 112.93C137.414 113.227 138.211 113.375 139.102 113.375C140.18 113.375 141.242 113.172 142.289 112.766C143.336 112.359 144.234 111.688 144.984 110.75L148.57 115.016C148.055 115.75 147.32 116.461 146.367 117.148C145.43 117.836 144.305 118.398 142.992 118.836C141.68 119.258 140.211 119.469 138.586 119.469ZM160.43 98.5156V128.75H152.531V93.6406H159.891L160.43 98.5156ZM175.992 106.016V106.508C175.992 108.352 175.781 110.062 175.359 111.641C174.938 113.219 174.312 114.594 173.484 115.766C172.656 116.938 171.625 117.852 170.391 118.508C169.172 119.148 167.758 119.469 166.148 119.469C164.633 119.469 163.328 119.133 162.234 118.461C161.141 117.789 160.227 116.859 159.492 115.672C158.758 114.484 158.164 113.125 157.711 111.594C157.258 110.062 156.898 108.445 156.633 106.742V106.109C156.898 104.281 157.258 102.586 157.711 101.023C158.164 99.4453 158.758 98.0703 159.492 96.8984C160.227 95.7266 161.133 94.8125 162.211 94.1562C163.305 93.5 164.609 93.1719 166.125 93.1719C167.734 93.1719 169.148 93.4766 170.367 94.0859C171.602 94.6953 172.633 95.5703 173.461 96.7109C174.305 97.8359 174.938 99.1875 175.359 100.766C175.781 102.344 175.992 104.094 175.992 106.016ZM168.094 106.508V106.016C168.094 105.031 168.023 104.133 167.883 103.32C167.742 102.492 167.516 101.773 167.203 101.164C166.906 100.555 166.508 100.086 166.008 99.7578C165.508 99.4297 164.891 99.2656 164.156 99.2656C163.312 99.2656 162.602 99.3984 162.023 99.6641C161.461 99.9141 161.008 100.305 160.664 100.836C160.336 101.352 160.102 102 159.961 102.781C159.836 103.547 159.781 104.445 159.797 105.477V107.398C159.766 108.586 159.883 109.633 160.148 110.539C160.414 111.43 160.875 112.125 161.531 112.625C162.188 113.125 163.078 113.375 164.203 113.375C164.953 113.375 165.578 113.203 166.078 112.859C166.578 112.5 166.977 112.008 167.273 111.383C167.57 110.742 167.781 110.008 167.906 109.18C168.031 108.352 168.094 107.461 168.094 106.508ZM187.852 83V119H179.93V83H187.852ZM191.742 106.578V106.086C191.742 104.227 192.008 102.516 192.539 100.953C193.07 99.375 193.852 98.0078 194.883 96.8516C195.914 95.6953 197.188 94.7969 198.703 94.1562C200.219 93.5 201.969 93.1719 203.953 93.1719C205.953 93.1719 207.711 93.5 209.227 94.1562C210.758 94.7969 212.039 95.6953 213.07 96.8516C214.102 98.0078 214.883 99.375 215.414 100.953C215.945 102.516 216.211 104.227 216.211 106.086V106.578C216.211 108.422 215.945 110.133 215.414 111.711C214.883 113.273 214.102 114.641 213.07 115.812C212.039 116.969 210.766 117.867 209.25 118.508C207.734 119.148 205.984 119.469 204 119.469C202.016 119.469 200.258 119.148 198.727 118.508C197.195 117.867 195.914 116.969 194.883 115.812C193.852 114.641 193.07 113.273 192.539 111.711C192.008 110.133 191.742 108.422 191.742 106.578ZM199.641 106.086V106.578C199.641 107.531 199.711 108.422 199.852 109.25C199.992 110.078 200.227 110.805 200.555 111.43C200.883 112.039 201.328 112.516 201.891 112.859C202.453 113.203 203.156 113.375 204 113.375C204.828 113.375 205.516 113.203 206.062 112.859C206.625 112.516 207.07 112.039 207.398 111.43C207.727 110.805 207.961 110.078 208.102 109.25C208.242 108.422 208.312 107.531 208.312 106.578V106.086C208.312 105.164 208.242 104.297 208.102 103.484C207.961 102.656 207.727 101.93 207.398 101.305C207.07 100.664 206.625 100.164 206.062 99.8047C205.5 99.4453 204.797 99.2656 203.953 99.2656C203.125 99.2656 202.43 99.4453 201.867 99.8047C201.32 100.164 200.883 100.664 200.555 101.305C200.227 101.93 199.992 102.656 199.852 103.484C199.711 104.297 199.641 105.164 199.641 106.086ZM227.133 116.023L233.695 93.6406H242.18L231.984 122.773C231.766 123.414 231.477 124.102 231.117 124.836C230.758 125.586 230.266 126.297 229.641 126.969C229.016 127.641 228.211 128.188 227.227 128.609C226.258 129.031 225.055 129.242 223.617 129.242C222.852 129.242 222.289 129.203 221.93 129.125C221.586 129.062 221.055 128.945 220.336 128.773V123.125C220.539 123.125 220.711 123.125 220.852 123.125C221.008 123.125 221.18 123.125 221.367 123.125C222.211 123.125 222.883 123.039 223.383 122.867C223.898 122.695 224.289 122.445 224.555 122.117C224.836 121.789 225.055 121.391 225.211 120.922L227.133 116.023ZM225.469 93.6406L230.461 111.383L231.328 119.75H226.031L217.008 93.6406H225.469ZM252.211 99.0078V119H244.312V93.6406H251.719L252.211 99.0078ZM251.25 105.453L249.445 105.5C249.445 103.719 249.656 102.078 250.078 100.578C250.5 99.0781 251.125 97.7734 251.953 96.6641C252.781 95.5547 253.797 94.6953 255 94.0859C256.219 93.4766 257.625 93.1719 259.219 93.1719C260.328 93.1719 261.336 93.3438 262.242 93.6875C263.148 94.0156 263.93 94.5391 264.586 95.2578C265.242 95.9609 265.742 96.8828 266.086 98.0234C266.445 99.1484 266.625 100.5 266.625 102.078V119H258.727V103.086C258.727 102.008 258.602 101.195 258.352 100.648C258.117 100.102 257.773 99.7344 257.32 99.5469C256.867 99.3594 256.312 99.2656 255.656 99.2656C254.969 99.2656 254.352 99.4219 253.805 99.7344C253.258 100.047 252.789 100.484 252.398 101.047C252.023 101.594 251.734 102.242 251.531 102.992C251.344 103.742 251.25 104.562 251.25 105.453ZM265.734 105.453L263.531 105.5C263.531 103.719 263.727 102.078 264.117 100.578C264.523 99.0781 265.125 97.7734 265.922 96.6641C266.734 95.5547 267.742 94.6953 268.945 94.0859C270.148 93.4766 271.547 93.1719 273.141 93.1719C274.297 93.1719 275.359 93.3438 276.328 93.6875C277.297 94.0312 278.133 94.5859 278.836 95.3516C279.539 96.1172 280.086 97.1328 280.477 98.3984C280.867 99.6484 281.062 101.195 281.062 103.039V119H273.141V103.039C273.141 101.992 273.016 101.203 272.766 100.672C272.531 100.125 272.188 99.7578 271.734 99.5703C271.281 99.3672 270.742 99.2656 270.117 99.2656C269.367 99.2656 268.719 99.4219 268.172 99.7344C267.625 100.047 267.164 100.484 266.789 101.047C266.43 101.594 266.164 102.242 265.992 102.992C265.82 103.742 265.734 104.562 265.734 105.453ZM297.867 119.469C295.805 119.469 293.961 119.148 292.336 118.508C290.711 117.852 289.336 116.953 288.211 115.812C287.102 114.672 286.25 113.359 285.656 111.875C285.078 110.391 284.789 108.82 284.789 107.164V106.273C284.789 104.414 285.047 102.695 285.562 101.117C286.078 99.5234 286.844 98.1328 287.859 96.9453C288.875 95.7578 290.148 94.8359 291.68 94.1797C293.211 93.5078 294.992 93.1719 297.023 93.1719C298.82 93.1719 300.43 93.4609 301.852 94.0391C303.273 94.6172 304.477 95.4453 305.461 96.5234C306.461 97.6016 307.219 98.9062 307.734 100.438C308.266 101.969 308.531 103.688 308.531 105.594V108.805H287.812V103.859H300.82V103.25C300.836 102.406 300.688 101.688 300.375 101.094C300.078 100.5 299.641 100.047 299.062 99.7344C298.484 99.4219 297.781 99.2656 296.953 99.2656C296.094 99.2656 295.383 99.4531 294.82 99.8281C294.273 100.203 293.844 100.719 293.531 101.375C293.234 102.016 293.023 102.758 292.898 103.602C292.773 104.445 292.711 105.336 292.711 106.273V107.164C292.711 108.102 292.836 108.953 293.086 109.719C293.352 110.484 293.727 111.141 294.211 111.688C294.711 112.219 295.305 112.633 295.992 112.93C296.695 113.227 297.492 113.375 298.383 113.375C299.461 113.375 300.523 113.172 301.57 112.766C302.617 112.359 303.516 111.688 304.266 110.75L307.852 115.016C307.336 115.75 306.602 116.461 305.648 117.148C304.711 117.836 303.586 118.398 302.273 118.836C300.961 119.258 299.492 119.469 297.867 119.469ZM319.5 99.0547V119H311.602V93.6406H319.008L319.5 99.0547ZM318.562 105.453L316.711 105.5C316.711 103.562 316.945 101.836 317.414 100.32C317.883 98.7891 318.547 97.4922 319.406 96.4297C320.266 95.3672 321.289 94.5625 322.477 94.0156C323.68 93.4531 325.016 93.1719 326.484 93.1719C327.656 93.1719 328.727 93.3438 329.695 93.6875C330.68 94.0312 331.523 94.5859 332.227 95.3516C332.945 96.1172 333.492 97.1328 333.867 98.3984C334.258 99.6484 334.453 101.195 334.453 103.039V119H326.508V103.016C326.508 102 326.367 101.227 326.086 100.695C325.805 100.148 325.398 99.7734 324.867 99.5703C324.336 99.3672 323.688 99.2656 322.922 99.2656C322.109 99.2656 321.422 99.4219 320.859 99.7344C320.297 100.047 319.844 100.484 319.5 101.047C319.172 101.594 318.93 102.242 318.773 102.992C318.633 103.742 318.562 104.562 318.562 105.453ZM352.195 93.6406V99.125H336.914V93.6406H352.195ZM340.125 87.3359H348.023V110.727C348.023 111.398 348.102 111.922 348.258 112.297C348.414 112.656 348.68 112.914 349.055 113.07C349.445 113.211 349.961 113.281 350.602 113.281C351.055 113.281 351.43 113.273 351.727 113.258C352.023 113.227 352.305 113.188 352.57 113.141V118.789C351.898 119.008 351.195 119.172 350.461 119.281C349.727 119.406 348.945 119.469 348.117 119.469C346.43 119.469 344.984 119.203 343.781 118.672C342.594 118.141 341.688 117.305 341.062 116.164C340.438 115.023 340.125 113.539 340.125 111.711V87.3359Z" fill="black"/>
<path d="M1134 0H1348C1356.28 0 1363 6.71573 1363 15V148C1363 156.284 1356.28 163 1348 163H1134V0Z" fill="#04172F"/>
<path d="M1212.5 117.5L1212.5 45.5L1284.5 45.5L1284.5 117.5L1212.5 117.5Z" fill="white" fill-opacity="0.01"/>
<path d="M1221.5 81.5125L1221.5 108.5L1275.5 108.5L1275.5 81.5" stroke="white" stroke-width="7.24" stroke-linecap="round" stroke-linejoin="round"/>
<path d="M1262 68L1248.5 54.5L1235 68" stroke="white" stroke-width="7.24" stroke-linecap="round" stroke-linejoin="round"/>
<path d="M1248.49 93.4999L1248.49 54.5" stroke="white" stroke-width="7.24" stroke-linecap="round" stroke-linejoin="round"/>
</svg>
